<svg width="64" height="64" viewBox="0 0 64 64" fill="none" xmlns="http://www.w3.org/2000/svg">
<rect width="64" height="64" rx="4" fill="#0A40DE"/>
<path d="M51.2032 20.3096H12.7968C12.3568 20.3096 12 20.6663 12 21.1064V42.8945C12 43.3346 12.3568 43.6913 12.7968 43.6913H51.2032C51.6432 43.6913 52 43.3346 52 42.8945V21.1064C52 20.6663 51.6432 20.3096 51.2032 20.3096ZM50.4064 42.0978H13.5936V21.9032H50.4063L50.4064 42.0978Z" fill="white"/>
<path d="M46.7673 36.4844H36.2968C35.8568 36.4844 35.5 36.8411 35.5 37.2812C35.5 37.7213 35.8567 38.078 36.2968 38.078H46.7673C47.2073 38.078 47.5641 37.7213 47.5641 37.2812C47.5641 36.8411 47.2073 36.4844 46.7673 36.4844Z" fill="white"/>
<path d="M46.7673 31.3682H36.2968C35.8568 31.3682 35.5 31.7249 35.5 32.165C35.5 32.605 35.8567 32.9618 36.2968 32.9618H46.7673C47.2073 32.9618 47.5641 32.605 47.5641 32.165C47.5641 31.7249 47.2073 31.3682 46.7673 31.3682Z" fill="white"/>
<path d="M46.811 26.252H46.1835C45.7435 26.252 45.3867 26.6087 45.3867 27.0487C45.3867 27.4888 45.7435 27.8455 46.1835 27.8455H46.811C47.251 27.8455 47.6078 27.4888 47.6078 27.0487C47.6078 26.6087 47.251 26.252 46.811 26.252Z" fill="white"/>
<path d="M43.155 26.252H36.2968C35.8568 26.252 35.5 26.6087 35.5 27.0487C35.5 27.4888 35.8567 27.8455 36.2968 27.8455H43.155C43.595 27.8455 43.9518 27.4888 43.9518 27.0487C43.9518 26.6087 43.595 26.252 43.155 26.252Z" fill="white"/>
<path d="M24.5773 32.7852C20.1687 32.7852 16.582 35.7314 16.582 39.3527C16.582 39.7927 16.9388 40.1495 17.3788 40.1495H31.7759C32.2159 40.1495 32.5727 39.7927 32.5727 39.3527C32.5727 35.7313 28.9861 32.7852 24.5773 32.7852ZM18.2577 38.5559C18.7051 36.4066 20.9314 34.7145 23.7211 34.4235V36.1997C23.7211 36.6398 24.0779 36.9965 24.5179 36.9965C24.9579 36.9965 25.3147 36.6398 25.3147 36.1997V34.4129C28.1596 34.6677 30.4434 36.3763 30.897 38.5559H18.2577Z" fill="white"/>
<path d="M24.5106 23.7246C22.2259 23.7246 20.3672 25.5834 20.3672 27.868C20.3672 30.1527 22.2259 32.0115 24.5106 32.0115C26.7953 32.0115 28.6541 30.1527 28.6541 27.868C28.6541 25.5834 26.7953 23.7246 24.5106 23.7246ZM24.5106 30.4178C23.1046 30.4178 21.9609 29.274 21.9609 27.868C21.9609 26.4621 23.1047 25.3183 24.5106 25.3183C25.9166 25.3183 27.0604 26.4621 27.0604 27.868C27.0604 29.274 25.9166 30.4178 24.5106 30.4178Z" fill="white"/>
</svg>
