<svg width="416" height="58" viewBox="0 0 416 58" fill="none" xmlns="http://www.w3.org/2000/svg">
<line x1="8.74228e-08" y1="15" x2="416" y2="15" stroke="#D4D4D8" stroke-width="2"/>
<circle cx="81" cy="16" r="15.5" fill="#0A40DE" stroke="#0A40DE"/>
<path d="M78.608 11.76V10.432H81.616V22H80.144V11.76H78.608Z" fill="white"/>
<path d="M37.8746 45.5H41.1506V46.328H37.8746V45.5ZM37.8746 48.932H41.1506V49.76H37.8746V48.932ZM35.8826 43.916C37.4546 43.916 38.5826 45.392 38.5826 47.696C38.5826 50.012 37.4546 51.488 35.8826 51.488C34.2986 51.488 33.1826 50.012 33.1826 47.696C33.1826 45.392 34.2986 43.916 35.8826 43.916ZM35.8826 44.816C34.8386 44.816 34.1186 45.944 34.1186 47.696C34.1186 49.46 34.8386 50.612 35.8826 50.612C36.9266 50.612 37.6466 49.46 37.6466 47.696C37.6466 45.944 36.9266 44.816 35.8826 44.816ZM40.9346 43.076H41.9186V53.948H40.9346V43.076ZM52.2137 43.088H53.1617V49.952H52.2137V43.088ZM50.4497 46.028H52.5017V46.856H50.4497V46.028ZM49.8977 43.304H50.8337V49.568H49.8977V43.304ZM43.9697 44.384H49.4657V45.176H43.9697V44.384ZM46.7297 45.728C48.0857 45.728 49.0337 46.472 49.0337 47.588C49.0337 48.716 48.0857 49.448 46.7297 49.448C45.3617 49.448 44.4137 48.716 44.4137 47.588C44.4137 46.472 45.3617 45.728 46.7297 45.728ZM46.7297 46.472C45.8777 46.472 45.3017 46.916 45.3017 47.588C45.3017 48.272 45.8777 48.704 46.7297 48.704C47.5697 48.704 48.1457 48.272 48.1457 47.588C48.1457 46.916 47.5697 46.472 46.7297 46.472ZM46.2377 43.172H47.2097V44.828H46.2377V43.172ZM49.6097 50.144C51.8657 50.144 53.2217 50.816 53.2217 52.028C53.2217 53.228 51.8657 53.912 49.6097 53.912C47.3297 53.912 45.9857 53.228 45.9857 52.028C45.9857 50.816 47.3297 50.144 49.6097 50.144ZM49.6097 50.912C47.9417 50.912 46.9697 51.308 46.9697 52.028C46.9697 52.748 47.9417 53.156 49.6097 53.156C51.2537 53.156 52.2377 52.748 52.2377 52.028C52.2377 51.308 51.2537 50.912 49.6097 50.912ZM63.2528 43.088H64.2008V49.484H63.2528V43.088ZM61.5247 45.812H63.5768V46.64H61.5247V45.812ZM60.8888 43.292H61.8248V49.424H60.8888V43.292ZM56.9168 50H64.2008V53.936H63.2168V50.816H56.9168V50ZM58.7768 43.892H59.7848C59.7848 46.484 58.3448 48.44 55.6088 49.592L55.1168 48.86C57.5288 47.876 58.7768 46.256 58.7768 44.228V43.892ZM55.5488 43.892H59.1368V44.708H55.5488V43.892ZM70.5118 41.696L67.2238 55.04H66.1438L69.4198 41.696H70.5118ZM79.7348 43.1H80.7308V51.368H79.7348V43.1ZM77.8988 45.968H80.1548V46.784H77.8988V45.968ZM77.8988 48.26H80.1548V49.064H77.8988V48.26ZM71.8268 44.408H77.8988V45.212H71.8268V44.408ZM74.8988 45.812C76.3388 45.812 77.3468 46.64 77.3468 47.888C77.3468 49.124 76.3388 49.964 74.8988 49.964C73.4468 49.964 72.4388 49.124 72.4388 47.888C72.4388 46.64 73.4468 45.812 74.8988 45.812ZM74.8988 46.592C73.9988 46.592 73.3868 47.12 73.3868 47.888C73.3868 48.656 73.9988 49.172 74.8988 49.172C75.7988 49.172 76.4108 48.656 76.4108 47.888C76.4108 47.12 75.7988 46.592 74.8988 46.592ZM74.4068 43.076H75.4028V44.924H74.4068V43.076ZM73.7588 52.88H80.9948V53.696H73.7588V52.88ZM73.7588 50.66H74.7548V53.276H73.7588V50.66ZM85.7219 44.636H86.5259V46.4C86.5259 48.692 85.1459 50.996 83.4179 51.848L82.8419 51.056C84.4139 50.312 85.7219 48.272 85.7219 46.4V44.636ZM85.9139 44.636H86.7179V46.4C86.7179 48.236 88.0259 50.108 89.6219 50.792L89.0579 51.584C87.3059 50.768 85.9139 48.656 85.9139 46.4V44.636ZM83.2019 44.192H89.2619V45.032H83.2019V44.192ZM90.7259 43.088H91.7219V53.936H90.7259V43.088ZM101.777 43.1H102.785V51.02H101.777V43.1ZM95.813 52.88H103.109V53.696H95.813V52.88ZM95.813 50.204H96.797V53.156H95.813V50.204ZM96.965 43.844C98.585 43.844 99.785 44.948 99.785 46.52C99.785 48.08 98.585 49.196 96.965 49.196C95.345 49.196 94.133 48.08 94.133 46.52C94.133 44.948 95.345 43.844 96.965 43.844ZM96.965 44.708C95.909 44.708 95.105 45.452 95.105 46.52C95.105 47.576 95.909 48.32 96.965 48.32C98.021 48.32 98.825 47.576 98.825 46.52C98.825 45.452 98.021 44.708 96.965 44.708ZM113.687 45.644H116.423V46.472H113.687V45.644ZM110.843 43.748H111.647V45.08C111.647 47.18 110.471 48.932 108.659 49.664L108.143 48.872C109.751 48.272 110.843 46.736 110.843 45.08V43.748ZM111.035 43.748H111.839V45.116C111.839 46.628 112.895 48.056 114.467 48.632L113.927 49.4C112.199 48.728 111.035 47.048 111.035 45.116V43.748ZM116.051 43.1H117.047V51.212H116.051V43.1ZM110.075 52.88H117.311V53.696H110.075V52.88ZM110.075 50.312H111.071V53.264H110.075V50.312ZM119.626 48.272H120.322C122.026 48.272 123.034 48.236 124.246 47.996L124.342 48.812C123.094 49.052 122.062 49.1 120.322 49.1H119.626V48.272ZM119.626 43.88H123.826V44.696H120.586V48.716H119.626V43.88ZM120.286 46.04H123.694V46.82H120.286V46.04ZM127.354 43.088H128.302V49.664H127.354V43.088ZM125.602 45.92H127.654V46.736H125.602V45.92ZM124.966 43.292H125.902V49.604H124.966V43.292ZM121.03 50.24H128.302V53.936H127.318V51.056H121.03V50.24Z" fill="#0C2F95"/>
<circle cx="210" cy="16" r="15.5" fill="white" stroke="#D4D4D8"/>
<path d="M205.816 20.832C207.171 19.744 208.232 18.8533 209 18.16C209.768 17.456 210.413 16.7253 210.936 15.968C211.469 15.2 211.736 14.448 211.736 13.712C211.736 13.0187 211.565 12.4747 211.224 12.08C210.893 11.6747 210.355 11.472 209.608 11.472C208.883 11.472 208.317 11.7013 207.912 12.16C207.517 12.608 207.304 13.2107 207.272 13.968H205.864C205.907 12.7733 206.269 11.8507 206.952 11.2C207.635 10.5493 208.515 10.224 209.592 10.224C210.691 10.224 211.56 10.528 212.2 11.136C212.851 11.744 213.176 12.5813 213.176 13.648C213.176 14.5333 212.909 15.3973 212.376 16.24C211.853 17.072 211.256 17.808 210.584 18.448C209.912 19.0773 209.053 19.8133 208.008 20.656H213.512V21.872H205.816V20.832Z" fill="#0C2F95"/>
<path d="M195.154 43.088H196.114V53.936H195.154V43.088ZM193.402 47.444H195.478V48.26H193.402V47.444ZM190.594 44.48H191.554C191.554 47.276 190.594 49.868 187.498 51.608L186.91 50.9C189.634 49.376 190.594 47.18 190.594 44.672V44.48ZM187.33 44.48H190.93V45.308H187.33V44.48ZM192.742 43.376H193.69V53.408H192.742V43.376ZM205.845 43.1H206.853V51.02H205.845V43.1ZM199.881 52.88H207.177V53.696H199.881V52.88ZM199.881 50.204H200.865V53.156H199.881V50.204ZM201.033 43.844C202.653 43.844 203.853 44.948 203.853 46.52C203.853 48.08 202.653 49.196 201.033 49.196C199.413 49.196 198.201 48.08 198.201 46.52C198.201 44.948 199.413 43.844 201.033 43.844ZM201.033 44.708C199.977 44.708 199.173 45.452 199.173 46.52C199.173 47.576 199.977 48.32 201.033 48.32C202.089 48.32 202.893 47.576 202.893 46.52C202.893 45.452 202.089 44.708 201.033 44.708ZM217.984 45.896H220.432V46.724H217.984V45.896ZM220.12 43.088H221.116V49.556H220.12V43.088ZM217.552 49.88C219.784 49.88 221.164 50.636 221.164 51.908C221.164 53.192 219.784 53.924 217.552 53.924C215.308 53.924 213.928 53.192 213.928 51.908C213.928 50.636 215.308 49.88 217.552 49.88ZM217.552 50.66C215.92 50.66 214.924 51.116 214.924 51.908C214.924 52.688 215.92 53.144 217.552 53.144C219.184 53.144 220.18 52.688 220.18 51.908C220.18 51.116 219.184 50.66 217.552 50.66ZM214.96 44.18H215.776V45.056C215.776 47.06 214.552 48.776 212.752 49.448L212.236 48.656C213.844 48.068 214.96 46.616 214.96 45.056V44.18ZM215.152 44.18H215.956V45.056C215.956 46.46 217.012 47.804 218.584 48.356L218.08 49.148C216.316 48.512 215.152 46.88 215.152 45.056V44.18ZM212.536 43.88H218.332V44.696H212.536V43.88ZM223.239 51.728H233.067V52.556H223.239V51.728ZM227.631 49.136H228.627V51.968H227.631V49.136ZM224.391 43.856H225.375V45.788H230.907V43.856H231.891V49.4H224.391V43.856ZM225.375 46.592V48.584H230.907V46.592H225.375Z" fill="#C8C8D0"/>
<circle cx="338" cy="16" r="15.5" fill="white" stroke="#D4D4D8"/>
<path d="M333.96 13.344C334.035 12.3627 334.413 11.5947 335.096 11.04C335.779 10.4853 336.664 10.208 337.752 10.208C338.477 10.208 339.101 10.3413 339.624 10.608C340.157 10.864 340.557 11.216 340.824 11.664C341.101 12.112 341.24 12.6187 341.24 13.184C341.24 13.8453 341.048 14.416 340.664 14.896C340.291 15.376 339.8 15.6853 339.192 15.824V15.904C339.885 16.0747 340.435 16.4107 340.84 16.912C341.245 17.4133 341.448 18.0693 341.448 18.88C341.448 19.488 341.309 20.0373 341.032 20.528C340.755 21.008 340.339 21.3867 339.784 21.664C339.229 21.9413 338.563 22.08 337.784 22.08C336.653 22.08 335.725 21.7867 335 21.2C334.275 20.6027 333.869 19.76 333.784 18.672H335.192C335.267 19.312 335.528 19.8347 335.976 20.24C336.424 20.6453 337.021 20.848 337.768 20.848C338.515 20.848 339.08 20.656 339.464 20.272C339.859 19.8773 340.056 19.3707 340.056 18.752C340.056 17.952 339.789 17.376 339.256 17.024C338.723 16.672 337.917 16.496 336.84 16.496H336.472V15.28H336.856C337.837 15.2693 338.579 15.1093 339.08 14.8C339.581 14.48 339.832 13.9893 339.832 13.328C339.832 12.7627 339.645 12.3093 339.272 11.968C338.909 11.6267 338.387 11.456 337.704 11.456C337.043 11.456 336.509 11.6267 336.104 11.968C335.699 12.3093 335.459 12.768 335.384 13.344H333.96Z" fill="#0C2F95"/>
<path d="M330.357 47.588H331.353V49.232H330.357V47.588ZM330.825 43.58C332.397 43.58 333.501 44.444 333.501 45.728C333.501 47.012 332.397 47.864 330.825 47.864C329.265 47.864 328.161 47.012 328.161 45.728C328.161 44.444 329.265 43.58 330.825 43.58ZM330.825 44.348C329.805 44.348 329.097 44.912 329.097 45.728C329.097 46.556 329.805 47.108 330.825 47.108C331.857 47.108 332.565 46.556 332.565 45.728C332.565 44.912 331.857 44.348 330.825 44.348ZM334.965 43.1H335.961V51.392H334.965V43.1ZM335.541 46.76H337.545V47.588H335.541V46.76ZM329.097 52.868H336.345V53.696H329.097V52.868ZM329.097 50.684H330.093V53.228H329.097V50.684ZM327.669 49.784L327.537 48.968C329.445 48.968 332.085 48.944 334.293 48.608L334.365 49.34C332.097 49.76 329.529 49.784 327.669 49.784ZM341.336 49.448H342.32V52.112H341.336V49.448ZM344.804 49.424H345.776V52.1H344.804V49.424ZM338.6 51.776H348.428V52.604H338.6V51.776ZM339.788 43.892H347.216V47.168H340.808V49.352H339.824V46.376H346.232V44.696H339.788V43.892ZM339.824 48.908H347.468V49.724H339.824V48.908Z" fill="#C8C8D0"/>
</svg>
